<svg width="39" height="37" viewBox="0 0 39 37" fill="none" xmlns="http://www.w3.org/2000/svg">
<path d="M32.6579 7.34302L32.9466 7.35019C33.6171 7.3854 34.2765 7.5433 34.8917 7.8163C35.5949 8.12838 36.2255 8.585 36.7418 9.15546C37.2578 9.72583 37.6487 10.3986 37.8891 11.1293C38.1295 11.8599 38.2148 12.6334 38.1383 13.3988L37.0358 24.4133C36.8997 25.772 36.2644 27.0323 35.252 27.9486C34.3661 28.7503 33.247 29.2389 32.0663 29.3487L31.5572 29.372H14.0244V29.3702C12.7512 29.3704 11.5168 28.9313 10.5321 28.1243C9.54722 27.317 8.8725 26.1928 8.62289 24.944L5.54299 9.5391C5.43519 8.99996 5.57457 8.44055 5.92305 8.01529C6.27173 7.58999 6.79292 7.34302 7.34289 7.34302H32.6579ZM12.2227 24.2251C12.3059 24.6411 12.5311 25.0156 12.8591 25.2846C13.1875 25.5537 13.5998 25.7007 14.0244 25.7005H31.5572C32.0121 25.7003 32.4515 25.5307 32.7888 25.2254C33.1259 24.9201 33.3369 24.5002 33.3822 24.0476L34.4847 13.0331C34.5102 12.7781 34.4823 12.5201 34.4023 12.2766C34.3221 12.033 34.1907 11.8088 34.0186 11.6187C33.8465 11.4285 33.6363 11.2763 33.4019 11.1723C33.2263 11.0944 33.04 11.0453 32.8498 11.0253L32.6579 11.0145H9.582L12.2227 24.2251Z" fill="#F1F0F1"/>
<path d="M4.07486 0L4.38142 0.0125491C5.09029 0.0718425 5.76935 0.336043 6.33369 0.77625C6.89848 1.21702 7.32119 1.81256 7.55095 2.48651L7.63701 2.77872V2.78052L9.12317 8.73415C9.36883 9.71778 8.77122 10.7132 7.78759 10.9589C6.80397 11.2046 5.8085 10.607 5.56282 9.62334L4.07486 3.6715H1.83575C0.821893 3.6715 0 2.84961 0 1.83575C0 0.821893 0.821893 0 1.83575 0H4.07486Z" fill="#F1F0F1"/>
<path d="M16.5214 33.0435C17.5353 33.0435 18.3572 33.8654 18.3572 34.8792C18.3572 35.8931 17.5353 36.715 16.5214 36.715H12.8499C11.8361 36.715 11.0142 35.8931 11.0142 34.8792C11.0142 33.8654 11.8361 33.0435 12.8499 33.0435H16.5214Z" fill="#F1F0F1"/>
<path d="M31.2074 33.0435C32.2213 33.0435 33.0432 33.8654 33.0432 34.8792C33.0432 35.8931 32.2213 36.715 31.2074 36.715H27.5359C26.5221 36.715 25.7002 35.8931 25.7002 34.8792C25.7002 33.8654 26.5221 33.0435 27.5359 33.0435H31.2074Z" fill="#F1F0F1"/>
</svg>
